<?xml version="1.0" encoding="UTF-8"?>
<svg version="1.1" xmlns="http://www.w3.org/2000/svg" width="264" height="64">
<path d="M0 0 C13.53 0 27.06 0 41 0 C41.495 1.485 41.495 1.485 42 3 C43.2065625 2.7215625 43.2065625 2.7215625 44.4375 2.4375 C45.7059375 2.2209375 45.7059375 2.2209375 47 2 C48.5660348 3.5660348 48.20784495 5.07198911 48.25 7.25 C48.19354322 13.76134908 47.77614826 23.22385174 43 28 C42.73796777 30.80120828 42.73796777 30.80120828 42.83984375 34.06640625 C42.85080078 35.27361328 42.86175781 36.48082031 42.87304688 37.72460938 C42.90495117 39.62436523 42.90495117 39.62436523 42.9375 41.5625 C42.97176365 44.06374669 43.00194252 46.56505386 43.02734375 49.06640625 C43.05429321 50.7361853 43.05429321 50.7361853 43.08178711 52.43969727 C43 55 43 55 42 56 C40.00041636 56.04080783 37.99954746 56.04254356 36 56 C36.495 58.475 36.495 58.475 37 61 C32.32798795 62.20568053 27.78503708 62.09382426 23 62 C23 61.01 23 60.02 23 59 C22.34 59 21.68 59 21 59 C21 58.34 21 57.68 21 57 C19.515 56.505 19.515 56.505 18 56 C18 57.32 18 58.64 18 60 C18.66 60 19.32 60 20 60 C20 60.66 20 61.32 20 62 C14.72 62 9.44 62 4 62 C3.67 60.35 3.34 58.7 3 57 C0.52363988 55.62533375 0.52363988 55.62533375 -2 55 C-2.02891949 50.70834738 -2.04677118 46.41671964 -2.0625 42.125 C-2.07087891 40.90167969 -2.07925781 39.67835937 -2.08789062 38.41796875 C-2.09111328 37.25136719 -2.09433594 36.08476563 -2.09765625 34.8828125 C-2.10289307 33.80402832 -2.10812988 32.72524414 -2.11352539 31.61376953 C-2 29 -2 29 -1 27 C-1.99 26.67 -2.98 26.34 -4 26 C-7.16506641 18.8865397 -8.6448058 11.73766964 -8 4 C-7 3 -7 3 -3.9375 2.9375 C-2.4834375 2.9684375 -2.4834375 2.9684375 -1 3 C-0.67 2.01 -0.34 1.02 0 0 Z M2 15 C3 17 3 17 3 17 Z M9 15 C10 17 10 17 10 17 Z M31 15 C32 17 32 17 32 17 Z M13 16 C11.96304783 29.45781913 11.96304783 29.45781913 18 41 C18.33 41 18.66 41 19 41 C19.495 36.545 19.495 36.545 20 32 C20.66 32 21.32 32 22 32 C22.33 34.64 22.66 37.28 23 40 C23.639375 39.195625 24.27875 38.39125 24.9375 37.5625 C27 35 27 35 28 34 C28.08631874 32.65732587 28.10706473 31.31025678 28.09765625 29.96484375 C28.09443359 29.15595703 28.09121094 28.34707031 28.08789062 27.51367188 C28.07951172 26.66353516 28.07113281 25.81339844 28.0625 24.9375 C28.05798828 24.08349609 28.05347656 23.22949219 28.04882812 22.34960938 C28.03700373 20.23304337 28.01906769 18.11651315 28 16 C23.05 16 18.1 16 13 16 Z M1 37 C1 40.63 1 44.26 1 48 C1.99 48 2.98 48 4 48 C4 44.37 4 40.74 4 37 C3.01 37 2.02 37 1 37 Z M8 37 C8 40.63 8 44.26 8 48 C9.32 47.67 10.64 47.34 12 47 C11.67 43.7 11.34 40.4 11 37 C10.01 37 9.02 37 8 37 Z M13 37 C13 40.63 13 44.26 13 48 C15.31 48 17.62 48 20 48 C19.21572648 46.35063087 18.42234741 44.70558873 17.625 43.0625 C16.96371094 41.68771484 16.96371094 41.68771484 16.2890625 40.28515625 C15.20800838 37.87096198 15.20800838 37.87096198 13 37 Z M27 37 C25.35 40.63 23.7 44.26 22 48 C23.98 48 25.96 48 28 48 C28 44.37 28 40.74 28 37 C27.67 37 27.34 37 27 37 Z M30 37 C30 40.63 30 44.26 30 48 C30.99 48 31.98 48 33 48 C33 44.37 33 40.74 33 37 C32.01 37 31.02 37 30 37 Z M37 37 C37 40.63 37 44.26 37 48 C37.99 48 38.98 48 40 48 C40 44.37 40 40.74 40 37 C39.01 37 38.02 37 37 37 Z M18 50 C19 52 19 52 19 52 Z M8 56 C8 56.33 8 56.66 8 57 C10.31 57.33 12.62 57.66 15 58 C15.33 57.34 15.66 56.68 16 56 C13.36 56 10.72 56 8 56 Z " fill="#153D8F" transform="translate(10,1)"/>
<path d="M0 0 C0.99 0 1.98 0 3 0 C3 21.12 3 42.24 3 64 C2.01 64 1.02 64 0 64 C0 42.88 0 21.76 0 0 Z " fill="#153D8F" transform="translate(75,0)"/>
<path d="M0 0 C14.19 0 28.38 0 43 0 C43 1.65 43 3.3 43 5 C28.15 5 13.3 5 -2 5 C-1.34 3.35 -0.68 1.7 0 0 Z M25 1 C26 3 26 3 26 3 Z " fill="#153D8F" transform="translate(96,56)"/>
<path d="M0 0 C5.33333333 0 10.66666667 0 16 0 C16.33 0.66 16.66 1.32 17 2 C17.33 1.34 17.66 0.68 18 0 C18.66 0 19.32 0 20 0 C20.33 0.66 20.66 1.32 21 2 C21.33 1.34 21.66 0.68 22 0 C24.33333333 0 26.66666667 0 29 0 C29.33 0.66 29.66 1.32 30 2 C30.33 1.34 30.66 0.68 31 0 C31.66 0 32.32 0 33 0 C34.4606285 2.64738916 35 3.89448334 35 7 C12 7 12 7 10.125 6.4375 C7.69014556 5.93620644 6.36667292 6.33437324 4 7 C2.68 7 1.36 7 0 7 C0 4.69 0 2.38 0 0 Z " fill="#153D8F" transform="translate(101,32)"/>
<path d="M0 0 C12.54 0 25.08 0 38 0 C38 1.65 38 3.3 38 5 C25.46 5 12.92 5 0 5 C0 3.35 0 1.7 0 0 Z " fill="#153D8F" transform="translate(141,56)"/>
<path d="M0 0 C9.24 0 18.48 0 28 0 C28 1.98 28 3.96 28 6 C27 7 27 7 24.49609375 7.09765625 C22.98208984 7.08025391 22.98208984 7.08025391 21.4375 7.0625 C20.42558594 7.05347656 19.41367188 7.04445313 18.37109375 7.03515625 C17.19740234 7.01775391 17.19740234 7.01775391 16 7 C16 5.35 16 3.7 16 2 C15.34 2 14.68 2 14 2 C14 3.32 14 4.64 14 6 C10.25 7.125 10.25 7.125 8 6 C7.67 5.01 7.34 4.02 7 3 C6.67 4.32 6.34 5.64 6 7 C5.34 7 4.68 7 4 7 C3.67 5.68 3.34 4.36 3 3 C2.34 4.32 1.68 5.64 1 7 C0.01 7 -0.98 7 -2 7 C-2 6.34 -2 5.68 -2 5 C-1.34 5 -0.68 5 0 5 C0 3.35 0 1.7 0 0 Z M10 2 C10 2.99 10 3.98 10 5 C10.66 5 11.32 5 12 5 C12 4.01 12 3.02 12 2 C11.34 2 10.68 2 10 2 Z " fill="#153D8F" transform="translate(140,32)"/>
<path d="M0 0 C0.33 1.65 0.66 3.3 1 5 C-1.75 6.125 -1.75 6.125 -5 7 C-5.639375 6.67 -6.27875 6.34 -6.9375 6 C-10.17930546 4.42821553 -12.66622174 5.98796017 -16 7 C-18.3125 6.5625 -18.3125 6.5625 -20 6 C-20.99 6.495 -20.99 6.495 -22 7 C-22.99 6.34 -23.98 5.68 -25 5 C-25.99 5.33 -26.98 5.66 -28 6 C-28 4.02 -28 2.04 -28 0 C-26 0 -24 0 -22 0 C-21.67 0.66 -21.34 1.32 -21 2 C-20.67 1.34 -20.34 0.68 -20 0 C-18.68 0.66 -17.36 1.32 -16 2 C-15.34 1.34 -14.68 0.68 -14 0 C-9.30380339 -1.06102674 -4.65722627 -1.35209795 0 0 Z M-13 2 C-12 4 -12 4 -12 4 Z " fill="#153D8F" transform="translate(185,22)"/>
<path d="M0 0 C4 0 4 0 7 0.5625 C9.89047679 0.98402787 11.27914145 0.81625756 14 0 C18 0 18 0 19.75 1.5 C20.1625 1.995 20.575 2.49 21 3 C20.34 4.32 19.68 5.64 19 7 C12.33333333 7 5.66666667 7 -1 7 C-1.04254356 5.00045254 -1.04080783 2.99958364 -1 1 C-0.67 0.67 -0.34 0.34 0 0 Z M13 2 C14 5 14 5 14 5 Z M16 3 C17 5 17 5 17 5 Z " fill="#153D8F" transform="translate(133,42)"/>
<path d="M0 0 C7.33333333 0 14.66666667 0 22 0 C21.67 2.31 21.34 4.62 21 7 C18.03 7 15.06 7 12 7 C12 5.35 12 3.7 12 2 C11.34 3.65 10.68 5.3 10 7 C6.66666667 7 3.33333333 7 0 7 C0 4.69 0 2.38 0 0 Z " fill="#153D8F" transform="translate(174,32)"/>
<path d="M0 0 C0.928125 0.165 1.85625 0.33 2.8125 0.5 C5.81793444 0.9714407 7.18869166 0.872475 10 0 C13 0 16 0 19 0 C19 2.31 19 4.62 19 7 C15 7 15 7 13.0625 6.4375 C10.44547178 5.8823728 8.614256 6.45283014 6 7 C3.66698014 7.03824623 1.33288492 7.04574284 -1 7 C-1.04254356 5.00045254 -1.04080783 2.99958364 -1 1 C-0.67 0.67 -0.34 0.34 0 0 Z M12 3 C12 3.66 12 4.32 12 5 C12.66 4.67 13.32 4.34 14 4 C13.34 3.67 12.68 3.34 12 3 Z " fill="#153D8F" transform="translate(96,42)"/>
<path d="M0 0 C4.84967635 -0.09509169 9.23512836 0.04702567 14 1 C16.14255793 0.61067144 16.14255793 0.61067144 18 0 C18.66 0 19.32 0 20 0 C20 2.31 20 4.62 20 7 C13.73 7 7.46 7 1 7 C0.67 4.69 0.34 2.38 0 0 Z M8 2 C9 5 9 5 9 5 Z M11 3 C11 3.66 11 4.32 11 5 C11.99 5 12.98 5 14 5 C14 4.34 14 3.68 14 3 C13.01 3 12.02 3 11 3 Z " fill="#153D8F" transform="translate(165,42)"/>
<path d="M0 0 C4 1 4 1 6 3 C6.33 2.01 6.66 1.02 7 0 C8.32 0 9.64 0 11 0 C11 3.63 11 7.26 11 11 C7.16263678 10.04065919 6.40339772 9.76390737 4 7 C3.67 8.32 3.34 9.64 3 11 C2.01 11 1.02 11 0 11 C0 7.37 0 3.74 0 0 Z " fill="#153D8F" transform="translate(107,3)"/>
<path d="M0 0 C2.33294775 -0.04241723 4.66702567 -0.04092937 7 0 C8 1 8 1 8.0625 3.4375 C8.041875 4.283125 8.02125 5.12875 8 6 C7.89459074 8.21081851 7.89459074 8.21081851 9 11 C6.03 11 3.06 11 0 11 C0 7.37 0 3.74 0 0 Z " fill="#153D8F" transform="translate(120,3)"/>
<path d="M0 0 C4.62 0 9.24 0 14 0 C14 2.31 14 4.62 14 7 C12.68 7 11.36 7 10 7 C10 5.35 10 3.7 10 2 C9.67 3.65 9.34 5.3 9 7 C8.4225 6.814375 7.845 6.62875 7.25 6.4375 C4.78490621 5.95817621 3.38259782 6.34273163 1 7 C0.67 6.67 0.34 6.34 0 6 C0 4.02 0 2.04 0 0 Z " fill="#153D8F" transform="translate(197,32)"/>
<path d="M0 0 C0.66 0 1.32 0 2 0 C2.33 0.66 2.66 1.32 3 2 C3.33 1.34 3.66 0.68 4 0 C4.99 0 5.98 0 7 0 C7.33 1.32 7.66 2.64 8 4 C8 2.68 8 1.36 8 0 C10.31 0 12.62 0 15 0 C15 1.98 15 3.96 15 6 C9.39 6 3.78 6 -2 6 C-1.34 4.02 -0.68 2.04 0 0 Z " fill="#153D8F" transform="translate(139,22)"/>
<path d="M0 0 C2.31 0 4.62 0 7 0 C7 1.32 7 2.64 7 4 C7.66 4 8.32 4 9 4 C9 2.68 9 1.36 9 0 C10.98 0 12.96 0 15 0 C15.33 1.32 15.66 2.64 16 4 C15.34 4 14.68 4 14 4 C14 4.66 14 5.32 14 6 C9.33333333 6 4.66666667 6 0 6 C0 4.02 0 2.04 0 0 Z " fill="#153D8F" transform="translate(121,22)"/>
<path d="M0 0 C2.31 0 4.62 0 7 0 C7 3.63 7 7.26 7 11 C4.69 11 2.38 11 0 11 C0 7.37 0 3.74 0 0 Z " fill="#153D8F" transform="translate(155,3)"/>
<path d="M0 0 C1.9375 0.375 1.9375 0.375 4 1 C4.33 1.66 4.66 2.32 5 3 C5.66 2.01 6.32 1.02 7 0 C8.32 0 9.64 0 11 0 C10.52269162 1.4589426 10.04308958 2.91713496 9.5625 4.375 C9.29566406 5.18710938 9.02882812 5.99921875 8.75390625 6.8359375 C8 9 8 9 7 11 C5.1875 10.9375 5.1875 10.9375 3 10 C1.18721244 6.5039097 0 3.96018245 0 0 Z " fill="#153D8F" transform="translate(130,3)"/>
<path d="M0 0 C1.32 0.33 2.64 0.66 4 1 C4.33 2.65 4.66 4.3 5 6 C5.66 6 6.32 6 7 6 C7.33 4.35 7.66 2.7 8 1 C9.32 0.67 10.64 0.34 12 0 C11.35550393 3.01217112 10.34977818 5.51655836 8.9375 8.25 C8.57527344 8.95640625 8.21304688 9.6628125 7.83984375 10.390625 C7.42412109 11.18726563 7.42412109 11.18726563 7 12 C4 11 4 11 2.83203125 9.00390625 C2.49558594 8.19824219 2.15914063 7.39257812 1.8125 6.5625 C1.46832031 5.75941406 1.12414062 4.95632812 0.76953125 4.12890625 C0 2 0 2 0 0 Z " fill="#153D8F" transform="translate(94,2)"/>
<path d="M0 0 C1.485 0.99 1.485 0.99 3 2 C3.33 1.34 3.66 0.68 4 0 C4.99 0.33 5.98 0.66 7 1 C7.680625 0.814375 8.36125 0.62875 9.0625 0.4375 C9.701875 0.293125 10.34125 0.14875 11 0 C11.66 0.66 12.32 1.32 13 2 C12.625 4.625 12.625 4.625 12 7 C11.278125 6.814375 10.55625 6.62875 9.8125 6.4375 C6.8527768 5.97709861 4.88369435 6.29856083 2 7 C1.34 7 0.68 7 0 7 C0 4.69 0 2.38 0 0 Z M9 3 C9 3.66 9 4.32 9 5 C9.66 5 10.32 5 11 5 C11 4.34 11 3.68 11 3 C10.34 3 9.68 3 9 3 Z " fill="#153D8F" transform="translate(186,42)"/>
<path d="M0 0 C1.32 0 2.64 0 4 0 C3.34 2.31 2.68 4.62 2 7 C1.34 7 0.68 7 0 7 C-0.33 6.01 -0.66 5.02 -1 4 C-1.99 5.485 -1.99 5.485 -3 7 C-4.65 6.67 -6.3 6.34 -8 6 C-8 4.35 -8 2.7 -8 1 C-5.27049225 -0.36475387 -3.03004728 -0.06060095 0 0 Z M-6 3 C-5 5 -5 5 -5 5 Z " fill="#153D8F" transform="translate(219,42)"/>
<path d="M0 0 C2.64 0 5.28 0 8 0 C8 0.99 8 1.98 8 3 C7.34 3 6.68 3 6 3 C6 5.64 6 8.28 6 11 C4.68 11 3.36 11 2 11 C2 8.69 2 6.38 2 4 C1.34 3.67 0.68 3.34 0 3 C0 2.01 0 1.02 0 0 Z " fill="#153D8F" transform="translate(163,3)"/>
<path d="M0 0 C0.66 0 1.32 0 2 0 C2.33 0.99 2.66 1.98 3 3 C3.99 2.01 4.98 1.02 6 0 C7.32 0.66 8.64 1.32 10 2 C9.67 3.65 9.34 5.3 9 7 C6.03 7 3.06 7 0 7 C0 4.69 0 2.38 0 0 Z M6 3 C6 3.66 6 4.32 6 5 C6.66 5 7.32 5 8 5 C8 4.34 8 3.68 8 3 C7.34 3 6.68 3 6 3 Z " fill="#153D8F" transform="translate(200,42)"/>
<path d="M0 0 C4.875 0.875 4.875 0.875 6 2 C6.33 1.34 6.66 0.68 7 0 C7.99 0.33 8.98 0.66 10 1 C10.33 2.65 10.66 4.3 11 6 C6.98195309 6.84098656 3.98196457 7.05404945 0 6 C0 4.02 0 2.04 0 0 Z " fill="#153D8F" transform="translate(214,22)"/>
<path d="M0 0 C1.32 0 2.64 0 4 0 C4 1.32 4 2.64 4 4 C4.66 2.68 5.32 1.36 6 0 C6.99 0 7.98 0 9 0 C10.0625 1.8125 10.0625 1.8125 11 4 C10.67 4.99 10.34 5.98 10 7 C9.01 6.67 8.02 6.34 7 6 C6.01 6.33 5.02 6.66 4 7 C1.8125 6.5625 1.8125 6.5625 0 6 C0 4.02 0 2.04 0 0 Z " fill="#153D8F" transform="translate(201,22)"/>
<path d="M0 0 C0.66 0 1.32 0 2 0 C2 1.32 2 2.64 2 4 C2.66 4 3.32 4 4 4 C4 2.68 4 1.36 4 0 C5.65 0 7.3 0 9 0 C9 1.98 9 3.96 9 6 C3.375 7.125 3.375 7.125 0 6 C0 4.02 0 2.04 0 0 Z " fill="#153D8F" transform="translate(111,22)"/>
<path d="M0 0 C0.99 0 1.98 0 3 0 C3.02688151 1.64574566 3.04634123 3.29161413 3.0625 4.9375 C3.07410156 5.85402344 3.08570313 6.77054688 3.09765625 7.71484375 C3 10 3 10 2 11 C0.33382885 11.04063832 -1.33388095 11.042721 -3 11 C-3 10.01 -3 9.02 -3 8 C-2.01 8 -1.02 8 0 8 C0 5.36 0 2.72 0 0 Z " fill="#153D8F" transform="translate(144,3)"/>
<path d="M0 0 C3 1 3 1 4 3 C4.33 2.01 4.66 1.02 5 0 C5.66 0 6.32 0 7 0 C7.33 1.98 7.66 3.96 8 6 C5.98177083 5.96744792 3.96354167 5.93489583 1.9453125 5.90234375 C-0.08185404 5.87350758 -0.08185404 5.87350758 -2 7 C-1.125 2.25 -1.125 2.25 0 0 Z " fill="#153D8F" transform="translate(102,22)"/>
<path d="M0 0 C2.64 0 5.28 0 8 0 C7.67 1.98 7.34 3.96 7 6 C5.02 6 3.04 6 1 6 C0.67 4.02 0.34 2.04 0 0 Z " fill="#153D8F" transform="translate(186,22)"/>
<path d="M0 0 C0.99 0.33 1.98 0.66 3 1 C4.1875 4.0625 4.1875 4.0625 5 7 C3.02 7 1.04 7 -1 7 C-2 4 -2 4 -1.0625 1.8125 C-0.5365625 0.9153125 -0.5365625 0.9153125 0 0 Z " fill="#153D8F" transform="translate(158,42)"/>
<path d="M0 0 C0.99 0 1.98 0 3 0 C3 3.63 3 7.26 3 11 C2.01 11 1.02 11 0 11 C0 7.37 0 3.74 0 0 Z " fill="#153D8F" transform="translate(150,3)"/>
<path d="M0 0 C1.485 0.99 1.485 0.99 3 2 C3.33 1.34 3.66 0.68 4 0 C4.66 0 5.32 0 6 0 C6 2.31 6 4.62 6 7 C4 7 2 7 0 7 C0 4.69 0 2.38 0 0 Z " fill="#153D8F" transform="translate(116,42)"/>
<path d="M0 0 C1.67542976 0.28604898 3.34385343 0.61781233 5 1 C5 2.65 5 4.3 5 6 C1.25 7.125 1.25 7.125 -1 6 C-1.042721 4.33388095 -1.04063832 2.66617115 -1 1 C-0.67 0.67 -0.34 0.34 0 0 Z M1 2 C1.33 2.99 1.66 3.98 2 5 C2.33 4.01 2.66 3.02 3 2 C2.34 2 1.68 2 1 2 Z " fill="#153D8F" transform="translate(215,32)"/>
<path d="M0 0 C2.625 0.375 2.625 0.375 5 1 C4.67 2.65 4.34 4.3 4 6 C2.35 6 0.7 6 -1 6 C-1.625 4.125 -1.625 4.125 -2 2 C-1.34 1.34 -0.68 0.68 0 0 Z M1 2 C1 2.66 1 3.32 1 4 C1.66 4 2.32 4 3 4 C3 3.34 3 2.68 3 2 C2.34 2 1.68 2 1 2 Z " fill="#153D8F" transform="translate(227,22)"/>
<path d="M0 0 C0.99 0 1.98 0 3 0 C3 2.31 3 4.62 3 7 C1.68 7 0.36 7 -1 7 C-1.04254356 5.00045254 -1.04080783 2.99958364 -1 1 C-0.67 0.67 -0.34 0.34 0 0 Z " fill="#153D8F" transform="translate(124,42)"/>
<path d="M0 0 C0.598125 0.185625 1.19625 0.37125 1.8125 0.5625 C4.16408762 1.22093687 4.16408762 1.22093687 7 0 C6.1875 2.9375 6.1875 2.9375 5 6 C4.01 6.33 3.02 6.66 2 7 C0.5393715 4.35261084 0 3.10551666 0 0 Z " fill="#153D8F" transform="translate(94,21)"/>
<path d="M0 0 C1.98 0 3.96 0 6 0 C5.67 1.98 5.34 3.96 5 6 C4.01 6 3.02 6 2 6 C1.34 4.02 0.68 2.04 0 0 Z " fill="#153D8F" transform="translate(94,32)"/>
<path d="M0 0 C0.99 0.33 1.98 0.66 3 1 C3.33 2.65 3.66 4.3 4 6 C2.02 6 0.04 6 -2 6 C-1.34 4.02 -0.68 2.04 0 0 Z " fill="#153D8F" transform="translate(196,22)"/>
<path d="M0 0 C1.32 0 2.64 0 4 0 C4 1.32 4 2.64 4 4 C3.34 4 2.68 4 2 4 C2 4.99 2 5.98 2 7 C1.34 7 0.68 7 0 7 C0 4.69 0 2.38 0 0 Z " fill="#153D8F" transform="translate(221,32)"/>
<path d="M0 0 C0.99 0 1.98 0 3 0 C3 2.31 3 4.62 3 7 C2.01 7 1.02 7 0 7 C0 4.69 0 2.38 0 0 Z " fill="#153D8F" transform="translate(128,42)"/>
<path d="M0 0 C0.66 0 1.32 0 2 0 C2 2.31 2 4.62 2 7 C1.34 7 0.68 7 0 7 C0 4.69 0 2.38 0 0 Z " fill="#153D8F" transform="translate(171,32)"/>
</svg>
